# xmcd
#
# Track frame offsets:
#	150
#	20853
#	35519
#	53286
#	71537
#	88976
#	107083
#	121661
#	138756
#	154588
#	167346
#	183016
#	200198
#	212791
#	229103
#	247659
#	265344
#
# Disc length: 3800 seconds
#
# Revision: 1
# Processed by: cddbd v1.5.2PL0 Copyright (c) Steve Scherf et al.
# Submitted via: audiograbber 1.83.01
#
DISCID=dd0ed611
DTITLE=Baia - Baia No Circo
DYEAR=2010
DGENRE=MPB
TTITLE0=Eus
TTITLE1=Fulano, Beltrano e Sicrano
TTITLE2=Lembrei
TTITLE3=Habeas Corpus
TTITLE4=Tá Tudo Mudando (Things Have Changed) Part. Zé Ramalho
TTITLE5=A Trilha Sonora da Vida
TTITLE6=Lado Oposto
TTITLE7=Em Nome da Fome
TTITLE8=Baia e a Doida
TTITLE9=Quando eu Morrer
TTITLE10=Bicho Homem
TTITLE11=Os Dias de Hoje
TTITLE12=Doce Doçura
TTITLE13=Trem
TTITLE14=O Comedor de Calango e o Gerente da Multinacional
TTITLE15=Na Fé (Santa Fé)
TTITLE16=103 Chapéus de Couro
EXTD=
EXTT0=
EXTT1=
EXTT2=
EXTT3=
EXTT4=
EXTT5=
EXTT6=
EXTT7=
EXTT8=
EXTT9=
EXTT10=
EXTT11=
EXTT12=
EXTT13=
EXTT14=
EXTT15=
EXTT16=
PLAYORDER=
